<svg xmlns="http://www.w3.org/2000/svg" width="24" height="24" viewBox="0 0 24 24">
    <path fill="#2F2F2F" fill-rule="evenodd" d="M15.462 4a4.31 4.31 0 0 0-3.049 1.26l.01-.01-6.77 6.462.847.884 6.779-6.461h.01a3.053 3.053 0 0 1 4.346 0 3.057 3.057 0 0 1 0 4.346l-8.246 7.74-.004.01a1.843 1.843 0 0 1-2.616 0 1.845 1.845 0 0 1 0-2.61v-.006l8.25-7.735.005-.005a.604.604 0 0 1 .875 0c.245.24.245.62 0 .865l-7.163 6.654.836.904L16.76 9.62l.01-.005a1.865 1.865 0 0 0 0-2.615 1.865 1.865 0 0 0-2.616 0l-8.245 7.74-.005.01a3.079 3.079 0 0 0 0 4.346 3.079 3.079 0 0 0 4.346 0l8.25-7.735.005-.005a4.32 4.32 0 0 0 0-6.096A4.292 4.292 0 0 0 15.462 4z"/>
</svg>
