<svg xmlns="http://www.w3.org/2000/svg" width="350" height="240" viewBox="0 0 350 240">
    <g fill="none" fill-rule="evenodd">
        <path fill="#A6A8AB" d="M44.638 21.425C44.663 9.76 54.173.29 65.837.316c11.665.025 21.133 9.535 21.108 21.2-.025 11.664-9.534 21.133-21.2 21.108-11.663-.025-21.132-9.535-21.107-21.2" transform="translate(0 .5)"/>
        <path fill="#FFF" d="M42.916 21.465c.025-11.5 9.4-20.834 20.9-20.81 11.499.026 20.834 9.4 20.809 20.9-.024 11.5-9.4 20.834-20.9 20.81-11.498-.025-20.834-9.401-20.809-20.9" transform="translate(0 .5)"/>
        <path fill="#929497" d="M42.916 21.465l.602.002c.023-11.152 9.106-20.21 20.252-20.21h.044c11.151.023 20.21 9.107 20.21 20.252v.047-.003c-.023 11.152-9.107 20.21-20.252 20.21h-.045c-11.15-.023-20.21-9.107-20.21-20.252v-.044l-.6-.002-.602-.007v.053c0 11.811 9.593 21.428 21.41 21.455h.047c11.81-.001 21.428-9.593 21.455-21.41v-.01.006-.043C85.225 9.7 75.634.081 63.817.054h-.047C51.959.055 42.34 9.647 42.315 21.464v-.006l.601.007" transform="translate(0 .5)"/>
        <path fill="#808184" d="M80.485 25.28L80.6 25.212 81.815 25.476 81.884 25.591 81.767 25.665 80.554 25.388 80.485 25.28M79.226 28.91L79.351 28.869 80.477 29.397 80.52 29.526 80.392 29.573 79.271 29.033 79.226 28.91M77.203 32.178L77.331 32.164 78.312 32.929 78.328 33.066 78.195 33.086 77.223 32.31 77.203 32.178M74.506 34.919L74.639 34.938 75.426 35.901 75.407 36.034 75.269 36.018 74.492 35.047 74.506 34.919M71.259 36.974L71.383 37.02 71.936 38.135 71.889 38.262 71.759 38.22 71.218 37.099 71.259 36.974M67.642 38.265L67.751 38.334 68.039 39.544 67.966 39.661 67.85 39.593 67.574 38.38 67.642 38.265M63.824 38.719L63.916 38.809 63.926 40.053 63.829 40.152 63.731 40.062 63.734 38.818 63.824 38.719M60.004 38.294L60.071 38.409 59.804 39.624 59.689 39.692 59.615 39.575 59.895 38.363 60.004 38.294M56.379 37.021L56.42 37.147 55.887 38.271 55.757 38.313 55.71 38.185 56.257 37.067 56.379 37.021M53.124 34.982L53.137 35.111 52.366 36.087 52.229 36.101 52.21 35.968 52.991 35.001 53.124 34.982M50.402 32.266L50.382 32.398 49.413 33.18 49.281 33.161 49.297 33.023 50.273 32.252 50.402 32.266M48.363 29.008L48.316 29.131 47.199 29.678 47.072 29.631 47.115 29.502 48.238 28.966 48.363 29.008M47.086 25.383L47.016 25.493 45.805 25.777 45.689 25.703 45.757 25.588 46.971 25.316 47.086 25.383M46.638 21.563L46.547 21.655 45.304 21.666 45.204 21.568 45.294 21.47 46.538 21.473 46.638 21.563M47.057 17.74L46.942 17.808 45.726 17.544 45.658 17.429 45.775 17.355 46.988 17.631 47.057 17.74M48.316 14.109L48.191 14.151 47.065 13.623 47.022 13.494 47.15 13.446 48.27 13.986 48.316 14.109M50.339 10.842L50.21 10.856 49.229 10.091 49.214 9.954 49.346 9.934 50.319 10.709 50.339 10.842M53.035 8.101L52.903 8.081 52.115 7.119 52.135 6.987 52.273 7.001 53.049 7.973 53.035 8.101M56.283 6.045L56.159 5.999 55.606 4.885 55.652 4.757 55.782 4.8 56.324 5.92 56.283 6.045M59.901 4.755L59.791 4.685 59.503 3.475 59.576 3.359 59.692 3.427 59.967 4.64 59.901 4.755M63.717 4.301L63.626 4.21 63.616 2.966 63.713 2.867 63.811 2.958 63.808 4.202 63.717 4.301M67.538 4.726L67.471 4.61 67.737 3.395 67.853 3.328 67.927 3.444 67.647 4.657 67.538 4.726M71.162 5.998L71.121 5.873 71.655 4.749 71.784 4.707 71.831 4.834 71.285 5.952 71.162 5.998M74.419 8.038L74.404 7.909 75.176 6.933 75.313 6.918 75.332 7.05 74.551 8.019 74.419 8.038M77.14 10.753L77.16 10.621 78.128 9.839 78.26 9.859 78.245 9.996 77.269 10.767 77.14 10.753M79.179 14.012L79.225 13.888 80.342 13.341 80.47 13.389 80.427 13.518 79.303 14.053 79.179 14.012M80.456 17.636L80.525 17.527 81.737 17.242 81.853 17.316 81.785 17.432 80.571 17.703 80.456 17.636M80.904 21.456L80.995 21.364 82.238 21.354 82.337 21.452 82.248 21.55 81.003 21.547 80.904 21.456" transform="translate(0 .5)"/>
        <path fill="#58595B" d="M65.791 22.15c0 1.117-.904 2.022-2.02 2.022s-2.02-.905-2.02-2.021c0-1.116.904-2.02 2.02-2.02s2.02.904 2.02 2.02" transform="translate(0 .5)"/>
        <path fill="#58595B" d="M63.435 23.283c-.372-.001-.724-.222-.875-.587-.2-.485.03-1.04.515-1.239l11.868-4.898c.486-.2 1.04.03 1.24.515.199.484-.032 1.038-.516 1.239L63.8 23.21c-.12.05-.242.072-.364.072" transform="translate(0 .5)"/>
        <path fill="#58595B" d="M63.436 23.006c-.218 0-.432-.107-.561-.304L54.365 9.74c-.203-.31-.117-.728.193-.931.311-.204.728-.118.93.193L64 21.965c.203.31.117.727-.193.931-.115.075-.242.11-.37.11" transform="translate(0 .5)"/>
        <path fill="#18A2F7" d="M25.584 119.527v2.014c0 3.707 3.005 6.713 6.712 6.713s6.713-3.006 6.713-6.713v-2.014H25.584" transform="translate(0 .5)"/>
        <path fill="#18A2F7" d="M22.006 126.773c2.314 1.26 6.055 2.082 10.29 2.082 4.234 0 7.976-.822 10.29-2.082h-20.58M35.29 126.689l-.047-.726c.036-.002 3.638-.257 4.73-1.797.462-.65.523-1.403.161-2.016-.777-1.322-3.31-.845-3.811-.737l-.155-.711c.824-.18 3.587-.633 4.594 1.078.502.855.427 1.93-.196 2.807-1.293 1.821-5.113 2.09-5.276 2.102" transform="translate(0 .5)"/>
        <path fill="#D0CCC8" d="M33.199 104.462c.322.172.615.395.873.668.262.27.482.596.629.974.144.378.207.797.156 1.222-.043.42-.236.865-.547 1.167-.307.305-.664.477-1 .615-.337.139-.668.252-.964.417-.296.159-.562.368-.715.635-.158.265-.174.578-.124.88.052.292.196.538.369.774.176.235.388.464.625.695.468.463 1.051.924 1.46 1.647.197.364.334.8.344 1.226.012.427-.076.833-.217 1.194-.29.722-.741 1.292-1.254 1.794l-.095-.056c.19-.691.43-1.344.506-1.965.038-.308.04-.6-.01-.866-.058-.265-.156-.497-.3-.738-.298-.48-.751-.97-1.211-1.533-.228-.284-.46-.594-.624-.963-.17-.366-.245-.8-.2-1.204.043-.39.182-.784.42-1.097.242-.307.545-.525.837-.727.58-.395 1.16-.858 1.444-1.321.144-.226.227-.448.28-.713.046-.263.043-.551-.009-.838-.052-.287-.157-.585-.286-.886-.135-.3-.301-.601-.466-.923l.079-.078" transform="translate(0 .5)"/>
        <path fill="#F6BD96" d="M138.336 108.077c-6.453 8.073-13.27 15.058-22.963 18.641 12.333 2.24 25.717-2.82 33.483-12.66l-10.52-5.98" transform="translate(0 .5)"/>
        <path fill="#667CD7" d="M149.508 85.093c.629.736-3.668 10.392-4.28 11.776-.81 1.832-1.798 3.553-2.929 5.206-.915 1.337-3.547 3.262-3.92 4.69-.158.608.143 1.256.577 1.713.433.456.99.773 1.494 1.15 1.24.928 2.179 2.256 2.64 3.735.244.787.43 1.715 1.151 2.112.674.37 1.558.076 2.092-.476 5.15-5.319 9.887-11.82 12.644-18.806l-9.469-11.1" transform="translate(0 .5)"/>
        <path fill="#576FD2" d="M136.156 110.081c4.182.98 7.795 4.12 9.351 8.122 1.78.077 3.489-1.078 4.304-2.663.814-1.584.804-3.513.214-5.195-.59-1.68-1.714-3.133-3.018-4.346-1.79-1.664-4.399-3.172-6.94-2.842-2.441.316-3.116 4.868-3.91 6.924" transform="translate(0 .5)"/>
        <path fill="#6D6E71" d="M160.232 220.264L163.206 220.264 163.206 156.234 160.232 156.234z" transform="translate(0 .5)"/>
        <path fill="#EE8D1B" d="M124.762 141.721l-20.208 5.838 55.295 16.183s49.59-1.564 51.83-69.151l-44.91-10.002s-1.645 35.407-10.659 44.534c-9.013 9.128-31.348 12.598-31.348 12.598" transform="translate(0 .5)"/>
        <path fill="#FFA82F" d="M120.954 141.104l-20.209 5.838 55.296 16.183s49.59-1.565 51.83-69.15l-44.91-10.003s-1.646 35.407-10.66 44.535c-9.013 9.127-31.347 12.597-31.347 12.597" transform="translate(0 .5)"/>
        <path fill="#D24242" d="M167.126 184.021c.346 1.135 1.287 2.169 2.457 2.137.835-.023 1.453-2.528 1.688-3.09.478-1.14.72-2.314 1.123-3.488.531-1.548.68-3.349.972-4.958.384-2.107.792-4.225 1.056-6.35.192-1.556.271-3.283-.677-4.532-1.048-1.382-2.963-1.691-4.684-1.9-1.722-.21-3.638-.534-4.668-1.93l-2.459 5.533c-.11.25-.223.51-.214.782.044 1.317 5.771 3.808 5.418 13.687-.045 1.273-.349 2.56-.09 3.807.021.1.048.202.078.302M95.471 227.223c-.992.652-1.717 1.846-1.356 2.96.257.794 22.396.704 23.076.3 1.227-.727.741-1.824.594-2.921-.205-1.534-.534-3.084-.642-4.628-.037-.523-.303-5.265.69-5.133l-6.002-.799c-.27-.036-.552-.071-.811.015-1.25.414-2.025 6.611-11.603 9.06-1.235.314-2.553.385-3.677.986-.09.05-.181.102-.269.16" transform="translate(0 .5)"/>
        <path fill="#2C2C4C" d="M168.545 140.747c-6.843 5.192-15.549 7.603-24.14 7.687-8.589.084-17.087-2.047-25.072-5.216-7.353-2.92-12.004-3.299-19.199-6.569-1.427-.648-2.364-4.637-.38-7.23 1.225-1.6.494-3.171 2.394-3.35 14.637-1.372 29.215.716 43.303 4.909 8.027 2.39 15.796 5.657 23.094 9.769" transform="translate(0 .5)"/>
        <path fill="#4C4C75" d="M145.22 167.28c3.93-1.638 7.879-3.235 11.798-4.9 3.495-1.487 7.3-2.331 10.777-3.978 3.226-1.528 6.235-3.678 8.264-6.615 1.319-1.908 2.21-4.284 1.68-6.543-1.844-7.87-15.757-7.283-21.678-6.377-16.284 2.494-36.473 15.802-42.751 31.481-3.146 7.86-6.129 35.49-6.129 50.21l10.866 1.273 10.54-39.913c.65-2.465 1.335-5 2.882-7.027 2.064-2.706 5.357-4.124 8.5-5.43l5.251-2.18" transform="translate(0 .5)"/>
        <path fill="#39395C" d="M165.973 158.256c-4.746 1.436-9.658 2.2-14.523 3.11-6.66 1.243-13.897 2.645-19.19 7.193-2.803 2.409-4.6 5.693-6.074 9.034-1.603 3.628-2.768 7.44-3.745 11.278-.953 3.746-1.714 7.535-2.47 11.323-.876 4.396-1.945 8.747-2.978 13.107-.644 2.724-1.286 5.451-1.909 8.183l2.963.347 10.54-39.913c.65-2.465 1.335-5 2.882-7.027 2.064-2.706 5.357-4.124 8.5-5.43l5.251-2.18c3.93-1.639 7.879-3.236 11.798-4.902 3.495-1.486 7.3-2.33 10.777-3.977 1.517-.72 2.982-1.581 4.325-2.592-1.966 1.025-4.023 1.802-6.147 2.446" transform="translate(0 .5)"/>
        <path fill="#7E8EE8" d="M187.672 81.264c-2.805-2.43-6.036-4.3-9.348-5.949-3.065-1.525-6.38-3.14-9.893-3.059-2.217.052-4.427.444-6.519 1.184-5.503 1.949-10.115 6.282-12.404 11.653-1.415 3.322-2.385 7.617-2.263 11.22.14 4.098 1.054 8.047.89 12.211-.165 4.156-.796 8.293-1.882 12.307-.514 1.901-1.012 4.546-2.016 6.243-.958 1.62-1.4 2.513-.228 4.316.906 1.393 2.356 2.322 3.762 3.21 3.394 2.14 6.823 4.296 10.562 5.79 1.902.76 3.808 1.197 5.801 1.61 1.986.412 3.95 1.321 5.883 2.016 2.415.87 5.1 1.737 7.479.774 2.28-.924 3.606-3.266 4.68-5.479 4.8-9.885 7.657-20.535 10.8-31.031 2.802-9.353 2.59-20.176-5.304-27.016" transform="translate(0 .5)"/>
        <path fill="#A6A8AB" d="M165.697 77.852l1.376.845c.062-.285.134-.557.194-.845h-1.57" transform="translate(0 .5)"/>
        <path fill="#F6BD96" d="M171.274 80.109c3.405-.05 6.126-2.85 6.077-6.254l-.334-23.19-12.329.178.333 23.19c.05 3.404 2.85 6.124 6.253 6.076" transform="translate(0 .5)"/>
        <path fill="#E7A579" d="M175.975 62.426l1.042-11.76-12.329.177.333 23.19c.016 1.058.321 2.036.804 2.9 6.674-2.175 8.812-8.155 10.15-14.507" transform="translate(0 .5)"/>
        <path fill="#F6BD96" d="M165.694 75.16c-13.73 4.971-17-26.842-3.046-32.268 21.453-8.342 20.741 25.86 3.046 32.268" transform="translate(0 .5)"/>
        <path fill="#ED5830" d="M176.48 63.431c.053 1 .313 1.99.782 2.875-.189-.328 1.311-2.904 1.484-3.314 1.337-3.175 2.694-6.438 2.822-9.88.043-1.177-.083-2.36-.407-3.493-3.343-11.665-19.809-9.691-27.586-4.219-.698.49-1.388 1.041-1.797 1.79-.69 1.266-.415 2.914.446 4.07 1.822 2.45 6.23 3.543 9.138 3.532 3.352-.011 6.732-1.277 9.105-3.676-.6 3.626 1.533 7.526 4.91 8.976.36-.65.957-.591 1.53-.119-.61 1.126-.494 2.179-.427 3.458" transform="translate(0 .5)"/>
        <path fill="#808184" d="M157.166 63.002l-.181-.025c-.146 1.12-1.228 1.947-2.53 1.948-.134 0-.27-.01-.408-.028-1.367-.182-2.353-1.227-2.35-2.359 0-.087.006-.175.018-.264.147-1.12 1.228-1.947 2.529-1.948.134 0 .27.01.41.028 1.367.182 2.352 1.226 2.348 2.358 0 .088-.006.176-.017.265l.181.025.181.023c.014-.104.022-.21.022-.313-.004-1.35-1.146-2.518-2.667-2.721-.155-.021-.308-.03-.458-.03-1.45-.002-2.71.929-2.892 2.264-.014.105-.021.21-.021.313.003 1.351 1.146 2.519 2.667 2.722.155.02.307.031.458.031 1.45.002 2.71-.93 2.891-2.265l-.18-.024M164.866 64.03l-.182-.025c-.147 1.12-1.227 1.946-2.529 1.948-.134 0-.271-.01-.41-.028-1.366-.182-2.352-1.227-2.348-2.359 0-.087.006-.175.017-.264.147-1.12 1.228-1.947 2.53-1.948.134 0 .27.009.409.028 1.366.182 2.353 1.226 2.349 2.358 0 .088-.006.176-.018.265l.182.025.181.023c.014-.104.021-.21.021-.313-.003-1.35-1.146-2.518-2.667-2.722-.154-.02-.307-.03-.458-.03-1.45-.001-2.71.93-2.891 2.265-.015.105-.022.21-.022.313.004 1.351 1.147 2.519 2.667 2.722.154.02.308.03.458.03 1.45.002 2.71-.929 2.892-2.264l-.181-.024" transform="translate(0 .5)"/>
        <path fill="#808184" d="M164.982 63.825L175.16 60.261 175.03 59.891 164.853 63.455M157.29 62.796l.008-.003c.052-.02.323-.106.685-.106.346 0 .772.077 1.191.364l.221-.324c-.496-.34-1.008-.433-1.412-.433-.485.001-.82.131-.835.136l.141.366" transform="translate(0 .5)"/>
        <path fill="#F6BD96" d="M175.095 60.076c.22-.33.528-.62.91-.726.382-.106.84.009 1.06.34.247.375.128.88-.052 1.292-.442 1.013-1.186 1.86-1.918 2.69v-3.596" transform="translate(0 .5)"/>
        <path fill="#E7A579" d="M157.516 63.128c.043.528.082 1.066.082 1.595 0 1.017-.145 1.99-.659 2.8-.117.192-.3.426-.307.746l.024.18c.045.167.15.294.263.386.113.093.239.158.354.21.352.158.723.273 1.102.341.116.02.227-.056.247-.171.021-.116-.056-.226-.17-.247-.346-.062-.684-.167-1.004-.311-.098-.044-.192-.095-.26-.151-.068-.057-.106-.111-.123-.17l-.008-.067c-.007-.123.11-.32.241-.519.578-.913.724-1.974.725-3.027 0-.55-.04-1.099-.083-1.629-.01-.117-.112-.204-.23-.194-.116.01-.203.111-.194.228" transform="translate(0 .5)"/>
        <path fill="#D79468" d="M157.383 70.855c.746.275 1.539.415 2.332.415.154 0 .307-.005.46-.015.118-.008.206-.11.198-.227-.008-.117-.11-.206-.226-.198-.144.01-.288.015-.432.015-.743 0-1.487-.131-2.185-.388-.11-.04-.232.016-.273.126-.04.11.016.232.126.272" transform="translate(0 .5)"/>
        <path fill="#4C4C75" d="M123.563 131.72c-8.654-3.614-20.533-8.963-29.541-3.043-2.899 1.906-5.177 5.104-5.303 8.637-.137 3.824 2.248 7.348 5.291 9.511 3.043 2.164 6.687 3.212 10.256 4.225l27.905 7.92c5.462 1.55 10.918 3.42 16.416 4.795 4.241 1.057 15.239 5.2 15.239 5.2s3.166-4.811 4.305-9.054c-12.602-12.828-28.137-21.33-44.568-28.19" transform="translate(0 .5)"/>
        <path fill="#39395C" d="M136.125 137.859c3.786 2.32 7.476 4.802 10.998 7.51 1.639 1.26 3.2 2.614 4.822 3.893 1.484 1.17 3.029 2.257 4.585 3.326 3.807 2.612 7.858 5.18 11.277 8.353.115-.344.232-.69.324-1.03-10.437-10.625-22.89-18.277-36.194-24.492 1.401.805 2.81 1.597 4.188 2.44M159.562 167.233c-4.544-1.685-9.193-3.04-13.76-4.652-8.013-2.828-15.617-6.634-23.36-10.102-4.594-2.057-9.423-3.552-14.073-5.475-4.566-1.888-9.267-4.114-12.81-7.645-1.572-1.565-2.871-3.414-3.626-5.509-.325-.898-.509-1.826-.626-2.76-1.494 1.756-2.506 3.914-2.588 6.224-.137 3.824 2.248 7.348 5.291 9.511 3.043 2.164 6.687 3.212 10.256 4.225l27.905 7.92c5.462 1.55 10.918 3.42 16.416 4.795 4.241 1.057 15.239 5.2 15.239 5.2l.034-.053c-1.425-.58-2.856-1.145-4.298-1.68" transform="translate(0 .5)"/>
        <path fill="#F6BD96" d="M175.718 113.79c-.548.27-1.048.778-1.492 1.616-2.2 4.143-6.483 6.964-10.498 9.405-2.244 1.363-4.587 2.567-7.004 3.595-1.361.58-5.205 2.736-6.647 2.33 7.728 2.172 13.916.302 21.276-1.824 5.909-1.708 11.085-4.505 14.649-9.809.911-1.356-4.497-3.856-5.244-4.213-1.91-.91-3.633-1.791-5.04-1.1" transform="translate(0 .5)"/>
        <path fill="#7E8EE8" d="M191.524 92.52c-.28-1.485-.797-2.894-1.686-4.127-2.34-3.243-6.065-2.718-8.148.391-.765 1.142-1.213 2.462-1.61 3.778-1.522 5.033-1.96 10.132-2.969 15.24-.375 1.898-.805 3.881-1.653 5.594 4.017.098 8.189 2.396 10.544 5.707.896-1.333 1.667-2.734 2.283-4.161 1.893-4.381 2.745-9.119 3.193-13.847.254-2.679.576-5.763.046-8.576" transform="translate(0 .5)"/>
        <path fill="#A5B4F6" d="M180.417 97.778c.43-2.443.727-4.919 1.45-7.3.362-1.199.849-2.408 1.55-3.454-.64.431-1.231 1.02-1.727 1.76-.765 1.142-1.213 2.462-1.61 3.778-1.522 5.033-1.96 10.132-2.969 15.24-.375 1.898-.805 3.881-1.653 5.594 1.04.026 2.09.205 3.117.505.985-5.327.9-10.785 1.842-16.123" transform="translate(0 .5)"/>
        <path fill="#576FD2" d="M187.85 115.832c.142-.297.305-.59.435-.89 1.775-4.108 2.63-8.532 3.1-12.965-.337.9-.71 1.785-1.102 2.651-.907 1.998-3.281 8.264-3.85 9.044.953.89.775 1.037 1.416 2.16M172.985 116.04c4.181.98 7.795 4.118 9.351 8.122 1.78.077 3.489-1.078 4.303-2.663.814-1.584.804-3.513.215-5.195-.59-1.681-1.713-3.134-3.019-4.347-1.79-1.663-4.398-3.171-6.94-2.841-2.441.316-3.116 4.867-3.91 6.924" transform="translate(0 .5)"/>
        <path fill="#6D6E71" d="M161.719 218.852L133.569 224.11 189.869 224.11 161.719 218.852" transform="translate(0 .5)"/>
        <path fill="#F6BD96" d="M149.585 126.496c-2.735.19-5.398 1.308-7.448 3.128 4.84.82 9.849 1.634 14.607.427 2.846-.722.27-1.876-.931-2.375-2.006-.835-4.038-1.331-6.228-1.18" transform="translate(0 .5)"/>
        <path fill="#A6A8AB" d="M194.34 239.017L221.479 133.211 218.517 132.451 191.377 238.258" transform="translate(0 .5)"/>
        <path fill="#A6A8AB" d="M249.498 238.258L222.357 132.451 219.394 133.211 246.535 239.017M3.485 239.017L30.625 133.211 27.663 132.451.522 238.258" transform="translate(0 .5)"/>
        <path fill="#A6A8AB" d="M58.642 238.258L31.503 132.451 28.54 133.211 55.68 239.017" transform="translate(0 .5)"/>
        <path fill="#FF7E19" d="M13.122 136.428L237.955 136.428 237.955 128.991 13.122 128.991z" transform="translate(0 .5)"/>
        <path fill="#808184" d="M55.475 96.192L55.26 96.829 55.685 96.819 55.475 96.192" transform="translate(0 .5)"/>
        <path fill="#FFA82F" d="M56.211 98.382L55.685 96.819 55.26 96.829 54.723 98.419 54.724 98.441 56.212 98.398 56.211 98.382" transform="translate(0 .5)"/>
        <path fill="#808184" d="M54.724 98.441L55.205 118.351 56.693 118.315 56.212 98.398 54.724 98.441" transform="translate(0 .5)"/>
        <path fill="#20A7F7" d="M61.804 102.931l-2.551 14.99c-.103.608.305 1.184.912 1.288l.189.016c.533 0 1.005-.385 1.098-.929l2.545-14.948-2.193-.417" transform="translate(0 .5)"/>
        <path fill="#FA9E9E" d="M64.427 100.818c.103-.608-.305-1.183-.913-1.287-.61-.105-1.182.305-1.286.913l-.175 1.024 2.195.403.179-1.053" transform="translate(0 .5)"/>
        <path fill="#D0CCC8" d="M62.053 101.468L61.804 102.931 63.997 103.348 64.248 101.871 62.053 101.468" transform="translate(0 .5)"/>
        <path fill="#00B580" d="M50.103 103.425l1.711 14.028c.07.569.587.974 1.155.904l.172-.036c.475-.142.794-.61.732-1.118l-1.707-13.99-2.063.212" transform="translate(0 .5)"/>
        <path fill="#FA9E9E" d="M51.877 100.846c-.07-.569-.586-.973-1.154-.904-.572.069-.973.585-.904 1.155l.117.959 2.061-.224-.12-.986" transform="translate(0 .5)"/>
        <path fill="#D0CCC8" d="M49.936 102.055L50.103 103.425 52.166 103.213 51.997 101.832 49.936 102.055" transform="translate(0 .5)"/>
        <path fill="#FF7E19" d="M51.83 104.235L54.154 114.275 55.603 113.94 53.279 103.9" transform="translate(0 .5)"/>
        <path fill="#00B580" d="M57.33 100.006L57.148 100.653 57.573 100.621 57.33 100.006" transform="translate(0 .5)"/>
        <path fill="#FFA82F" d="M58.178 102.156L57.573 100.621 57.148 100.653 56.693 102.268 56.694 102.29 58.178 102.172 58.178 102.156" transform="translate(0 .5)"/>
        <path fill="#1A1A3A" d="M56.694 102.29L58.187 122.15 59.672 122.039 58.178 102.172 56.694 102.29" transform="translate(0 .5)"/>
        <path fill="#18A2F7" d="M46.844 100.197L46.764 100.905 47.203 100.799 46.844 100.197" transform="translate(0 .5)"/>
        <path fill="#FFA82F" d="M48.097 102.301L47.203 100.799 46.764 100.905 46.564 102.673 46.569 102.696 48.102 102.318 48.097 102.301" transform="translate(0 .5)"/>
        <path fill="#18A2F7" d="M46.569 102.696L51.524 123.218 53.059 122.848 48.102 102.318 46.569 102.696" transform="translate(0 .5)"/>
        <path fill="#FFA82F" d="M60.074 98.038L59.825 98.662 60.25 98.676 60.074 98.038" transform="translate(0 .5)"/>
        <path fill="#D0D2D3" d="M60.687 100.266L60.25 98.676 59.825 98.662 59.199 100.22 59.198 100.242 60.687 100.282 60.687 100.266" transform="translate(0 .5)"/>
        <path fill="#FFA82F" d="M59.198 100.242L58.564 120.147 60.052 120.195 60.687 100.282 59.198 100.242" transform="translate(0 .5)"/>
        <path fill="#ED5830" d="M60.002 129.107L51.47 129.107 48.495 112.536 62.977 112.536 60.002 129.107" transform="translate(0 .5)"/>
        <path fill="#BBBDBF" d="M137.719 129.139L81.022 129.139 73.174 91.787 129.871 91.787 137.719 129.139" transform="translate(0 .5)"/>
        <path fill="#FFF" d="M107.34 110.463c0 1.046-.848 1.894-1.893 1.894-1.046 0-1.893-.848-1.893-1.894 0-1.045.847-1.893 1.893-1.893 1.045 0 1.893.848 1.893 1.893" transform="translate(0 .5)"/>
        <g>
            <path fill="#00B580" d="M64.49 54.739c-.022-.15-.102-.275-.228-.355-.08-.07-.161-.115-.264-.15-.23-.057-.46-.103-.688-.115h-.07c-1.17-.103-2.384.287-3.554.953-2.088 1.192-3.992 3.29-5.116 5.195-.15-1.307-.321-2.615-.527-3.923-.207-1.445-.46-2.89-.734-4.323-.035-.23-.081-.448-.127-.677-.172-.883-.355-1.766-.54-2.65.299-.23.586-.458.86-.687 1.95-1.595 3.626-3.235 4.612-5.827.138-.378.31-.883.436-1.411.333-1.411.333-2.993-1.48-2.89-2.03.126-3.532 2.305-4.553 3.877l-.07.103c-.343.55-.687 1.158-.996 1.777-.47-1.754-.975-3.498-1.526-5.241-.413-1.365-.872-2.741-1.342-4.094-.046-.161-.103-.311-.161-.471l.115-.091c.539-.46 1.17-.792 1.675-1.297.424-.412.79-.883 1.089-1.4.173-.251.31-.527.448-.802.699-1.422.975-3.005 1.227-4.622.092-.711.23-1.973.034-3.062-.183-1.078-.745-1.94-1.881-1.813-2.202.265-3.062 3.602-3.647 5.357-.321 1.055-.596 2.19-.814 3.36-1.744-3.991-3.843-7.822-6.354-11.377 1.927-1.147 2.82-4.302 2.489-6.561-.127-.917-.38-1.835-.815-2.684-.436-.837-.998-1.651-1.64-2.408-.677-.734-1.445-1.411-2.248-2.02-.791-.607-1.71-1.088-2.57-1.536-.47-.24-.894.103-.825.562.643 3.487 1.055 6.985 2.03 10.07-1.491-1.651-3.04-3.257-4.771-4.668-.986-2.603-2.707-5-5.058-6.778C24.509.385 21.378-.486 18.293.282c-.322.069-.46.459-.333.734.367.826.837 1.514 1.376 2.11.264.299.55.563.849.815.287.287.585.55.895.79 1.25.93 2.603 1.802 3.853 2.559.7.493 1.468.814 2.237 1.18.745.39 1.56.7 2.35 1.068.724.367 1.469.665 2.19 1.02.713.368 1.39.838 2.009 1.423 1.18 1.193 2.328 2.42 3.372 3.75-.883-.54-1.847-.974-2.856-1.238-.986-.287-1.984-.46-2.982-.39-1.973.092-3.74.894-5.15 2.546-.252.298-.195.63.058.768 1.387.689 3.635 1.434 6.02 1.939 2.409.424 4.944.562 6.963-.884l.114.15.092.08c2.695 3.796 4.886 7.948 6.71 12.238-.826-.803-1.801-1.457-2.443-1.858-1.273-.861-2.615-1.55-4.037-1.985-1.4-.458-2.902-.642-4.428-.54-.378.024-.62.369-.573.69.218 1.342.872 2.397 1.892 3.21.15.139.31.265.47.38.884.676 1.985 1.18 3.029 1.628.447.184.929.32 1.422.425 1.938.447 4.129.55 5.666 1.869 2.443 2.156 1.915 6.572 3.29 9.37l.082.16-.103-.182c-1.675-3.12-4.703-6-7.777-7.272-.86-.367-1.72-.596-2.557-.677-.287-.023-.631.172-.677.448-.378 2.867 1.227 5.196 3.487 7.19.252.219.504.425.768.632.849.677 1.755 1.307 2.684 1.892.355.218.7.436 1.055.654 1.078.642 2.133 1.216 3.097 1.72l.172.092c.183.092.379.183.55.276l.172.045h.173l.09.046c.208.975.403 1.95.586 2.925l.035.195c.298 1.56.562 3.108.779 4.668.149.952.276 1.892.379 2.844.023.115.035.24.046.356-.07-.103-.126-.195-.195-.298-.161-.23-.321-.46-.493-.688-.253-.345-.528-.688-.826-1.021-.791-.895-1.698-1.71-2.672-2.352-.93-.63-1.916-1.101-2.937-1.353h-.011c-.723-.195-1.468-.264-2.202-.206-.253.023-.436.252-.46.48-.022.105-.01.208.047.288.367.574.757 1.17 1.18 1.778 1.55 2.225 3.476 4.53 5.919 5.929.322.184.643.356.987.494l.103.046c.23.114.47.206.723.287l.034.01c.172.07.344.116.516.162.218.068.447.126.677.17.126.024.206.965.252 2.1v.012c.034.665.057 1.387.069 2.053.034 1.02.034 1.88.046 2.087v.172c.01.115.01.219.01.333.013.172.013.356.013.528.01.103.01.206.01.309.024.815.036 1.617.036 2.432 0 .458 0 .929-.012 1.399.012.505 0 1.02-.011 1.537l-.035 1.365c0 .126 0 .24-.011.356-.023.87-.058 1.73-.115 2.58-.126 2.053-.344 4.094-.745 6.113v.012c-.08.378-.161.756-.264 1.135-.012.103-.046.218-.07.32-.068.288-.148.575-.205.873.149 0 .298.01.447.01h.252c.39.013.79.024 1.193.013v-.023c.092-2.822.333-5.643.505-8.476.023-.333.046-.665.057-1.01.034-.527.057-1.054.08-1.582.023-.54.046-1.09.057-1.63 0-.136.012-.274.012-.412v-.114c.01-.3-.023-1.377-.07-2.8l-.033-1.18v-.23l-.07-1.87c0-.137-.01-.274-.022-.423-.023-.85-.057-1.71-.091-2.501-.023-.837-.058-1.617-.081-2.26-.057-1.078-.092-1.777-.115-1.777.276-.058.55-.115.815-.195.929-.241 1.823-.62 2.684-1.101.493-.264.963-.562 1.433-.895.184-.126.379-.275.562-.412.379-.288.723-.608 1.033-.941.137-.138.263-.287.389-.448 1.02-1.215 1.767-2.637 2.627-4.094.102-.172.126-.333.08-.493" transform="translate(0 .5) translate(240.5 117.5)"/>
            <path fill="#0A8E6D" d="M108.832 34.232c-1.686-2.214-5.3-2.742-8.42-2.81-1.788-.035-3.531.309-5.252.768-1.594.402-2.993 1.044-4.656 1.319-1.63.298-3.257.642-4.852 1.124 3.327-2.156 7.054-4.726 6.71-7.925-.035-.287-.46-.425-.826-.31-2.1.619-4.863 1.96-6.813 3.739-1.972 1.766-3.005 3.888-2.294 5.562l-.172.08-.103.058c-2.145.849-4.163 2.007-6.08 3.315-1.891 1.33-3.612 2.89-5.183 4.565.47-.975.849-2.042 1.158-2.707 1.182-2.741 2.467-5.471 3.075-8.178.08-.344-.265-.47-.677-.332-1.744.55-3.166 1.732-4.175 3.039-1.021 1.319-1.63 2.81-1.973 4.175-.54 2.34.447 4.473-.172 6.755-.401 1.48-1.422 2.81-2.49 4.187-.87 1.124-1.765 2.282-2.327 3.463-.126.253-.23.505-.321.758.092-.253.172-.493.252-.758.608-1.87 1.055-3.911 1.353-5.883.333-2.237.459-4.393.127-6.056-.058-.241-.322-.378-.608-.195-2.764 1.823-4.13 4.897-4.485 7.925-.252 1.767-.172 3.544.058 5.162.16 1.147.4 2.213.653 3.119l.046.16c.046.173.103.345.138.505.034.104.103.173.172.218l.023.08c-.321.654-.631 1.308-.918 1.973-.355.769-.7 1.56-1.021 2.34-.756 1.789-1.444 3.602-2.064 5.448l-.08.229-.012-.172c-.046-.952-.126-1.938-.275-2.901-.08-.585-.183-1.16-.321-1.721-.058-.218-.115-.436-.172-.642l-.172-.585c-.264-.837-.608-1.583-1.067-2.202-.31-.448-.676-.826-1.101-1.101l-.172-.035-.15.058c-.171.09-.332.298-.355.516-.103.665-.183 1.365-.23 2.065-.034.366-.045.733-.056 1.1-.012.585-.012 1.182.022 1.755v.058c.047.722.127 1.444.253 2.12.195 1.09.493 2.1.94 2.972.046.103.092.195.16.298l.104.195.138.23c.287.436.619.825.998 1.158l.08.069c.09.09.195.172.298.24-.092.31-.184.63-.264.94-.103.39-.217.792-.31 1.182-.172.63-.321 1.262-.47 1.904-.114.505-.23 1.02-.344 1.549-.023.114-.046.24-.07.367-.182.86-.354 1.72-.492 2.592-.183 1.032-.344 2.065-.482 3.108-.126.917-.23 1.835-.32 2.764-.081.849-.15 1.698-.207 2.558h.16c.15 0 .299.01.448.01h.252c.184-2.832.528-5.665 1.02-8.475.15-.802.299-1.594.46-2.397l.046-.194c.114-.551.229-1.09.366-1.641l.046-.23c.333-1.421.7-2.821 1.113-4.22.849.138 1.72.115 2.592-.034.688-.103 1.376-.276 2.042-.482.413-.126.79-.287 1.158-.46 1.227-.607 2.282-1.467 3.52-2.212.322-.207.345-.608.105-.85-.918-.986-2.41-1.25-4.003-.963-.448.08-.895.196-1.342.356-.471.16-.93.367-1.365.608-.665.344-1.296.78-1.835 1.25.206-.642.436-1.273.665-1.904.493-1.4 1.044-2.787 1.629-4.152.527-1.296 1.112-2.57 1.732-3.82.057-.137.126-.286.194-.424l.195-.023c1.64-.15 3.155-.297 4.703-.825.573-.195 1.147-.436 1.743-.757.643-.367 1.72-.93 2.168-1.63.298-.446.333-.94-.161-1.48-1.043-1.157-3.108-.767-4.6-.296-.366.114-.756.24-1.146.4-.195.08-.39.16-.585.253.115-.206.24-.401.356-.607 1.525-2.593 3.177-5.14 5.046-7.49.585.103 1.09.413 1.663.528.677.137 1.388.137 2.11.08 1.216-.092 2.432-.39 3.602-.608.516-.115 1.41-.264 2.099-.54.677-.275 1.158-.7.929-1.525-.23-.791-.94-1.284-1.847-1.571-.882-.264-1.938-.287-2.695-.241-.906.046-1.904.195-2.901.516 1.456-1.468 3.016-2.821 4.736-3.968 1.72-1.136 3.52-2.145 5.437-2.902.264.803.986 1.445 1.835 1.996.849.527 1.789.906 2.626 1.147 2.673.71 5.609.01 8.362-.872.366-.126.435-.54.149-.745-2.157-1.55-4.76-2.914-7.742-3.212 2.04-.493 4.129-.85 6.216-1.09 4.783 1.41 9.623 2.719 14.75.94.264-.102.344-.4.195-.595" transform="translate(0 .5) translate(240.5 117.5)"/>
            <path fill="#0A8E6D" d="M58.424 58.879c-1.422-.275-2.753.63-3.808 2.042-.608.803-1.124 1.777-1.514 2.776-.218.55-.39 1.1-.528 1.64l-.011.01-.034.162c-.23-.757-.46-1.514-.7-2.271-.035-.103-.057-.195-.092-.298-.768-2.421-1.606-4.806-2.534-7.158-.138-.39-.287-.78-.448-1.158.16-.23.32-.47.494-.7v-.011c.963-1.411 1.777-2.844 2.052-4.806.046-.252.069-.527.08-.814.012-.092.024-.195.024-.298.069-1.101-.035-3.28-1.056-3.865l-.022-.023c-.161-.092-.345-.15-.551-.15-.115 0-.23.012-.356.035-1.17.252-1.743 1.64-2.11 2.982-.103.4-.195.78-.275 1.136-.07.309-.138.619-.195.952-.058.298-.104.596-.15.917-.94-1.915-1.972-3.773-3.12-5.551-.676-1.044-1.375-2.042-2.132-3.017.229-.55.642-.975.86-1.548.252-.654.344-1.411.32-2.213-.011-.265-.033-.54-.068-.815-.15-1.124-.505-2.305-.963-3.452-.058-.15-.115-.31-.195-.493-.275-.643-.677-1.48-1.227-2.156-.688-.872-1.572-1.492-2.432-1.101-.493.229-.722.665-.792 1.204-.057.344-.045.734-.011 1.135.115 1.032.425 2.156.619 2.959.242.94.517 1.984.85 2.994-3.005-3.017-6.55-5.551-10.541-7.1.378-.757.275-1.743-.161-2.752-.447-.976-1.261-1.95-2.121-2.604-1.423-1.09-3.338-1.755-5.288-1.95-1.961-.195-3.957 0-5.69.436-.48.115-.561.539-.228.734 2.569 1.583 5.264 3.28 7.994 4.679-2.168-.32-4.358-.412-6.55-.31-2.42-.871-5.125-1.353-7.798-1.215-2.673.126-5.276.86-7.627 2.375-.253.16-.253.47-.07.619 2.26 1.732 5.965 1.33 9.027.986 1.767-.195 3.43-.7 5.116-1.112 1.56-.38 3.016-.884 4.714-.792 1.64.08 3.268.299 4.874.642-1.961.115-3.9.757-5.253 1.778-1.365 1.009-2.168 2.42-2.122 4.003.012.298.31.47.585.413 1.572-.367 3.613-1.01 5.517-1.79 1.88-.791 3.785-1.72 4.439-3.44l.172.069.115.022c4.197 1.629 7.948 4.37 11.02 7.697-.928-.528-1.971-.85-2.625-1.055-2.661-.861-5.311-.827-7.398.32-.264.15-.275.47-.103.677.734.918 1.652 1.457 2.718 1.835 1.044.39 2.237.597 3.407.746 1.96.263 4.163-.516 6.205.619 1.318.745 2.259 2.214 3.027 3.762.78 1.56 1.41 3.21 2.317 4.46-1.296-1.788-3.062-3.416-4.92-4.448-1.847-1.067-3.751-1.526-5.265-1.308-.23.023-.424.253-.355.493.63 2.409 2.409 4.06 4.622 5.586 1.938 1.307 4.186 2.489 6.102 3.429h.01c.277.126.54.252.804.379l.149.069c.16.069.322.149.47.217.104.046.195.046.276.023l.08.035c.986 2.477 1.88 5 2.695 7.546.31.93.608 1.87.895 2.81-.46-.607-.964-1.192-1.514-1.743-.286-.31-.596-.608-.917-.871-.173-.161-.345-.3-.516-.436-1.147-.918-2.352-1.583-3.522-1.835-.287-.058-.562-.092-.837-.092-.321-.023-.62 0-.918.069-.263.057-.344.527-.15.78.116.16.242.32.368.482.884 1.18 1.87 2.419 2.937 3.532l.022.023c.746.768 1.526 1.479 2.34 2.064 1.18.849 2.432 1.446 3.728 1.57.138.518.275 1.045.413 1.562.057.183.103.367.149.55.252 1.01.504 2.018.734 3.039.092.368.172.723.252 1.09.103.448.207.895.299 1.353.137.62.275 1.25.389 1.882l.035.194c.103.459.195.918.275 1.377.069.332.137.665.183 1.009.459 2.43.838 4.886 1.147 7.34.058.39.115.78.16 1.182.104 0 .208 0 .299-.012.195.012.379 0 .562 0-.046-.355-.08-.7-.137-1.044-.07-.573-.138-1.146-.23-1.72-.264-1.926-.573-3.854-.93-5.758-.148-.86-.31-1.731-.492-2.58-.114-.631-.241-1.24-.38-1.858l-.033-.184c-.126-.585-.252-1.158-.378-1.732l-.344-1.445c-.15-.62-.3-1.227-.448-1.835-.046-.183-.092-.355-.15-.54l-.056-.217c-.012-.103-.046-.206-.08-.31-.161-.665-.345-1.33-.528-1.995.252-.103.505-.23.734-.367.344-.195.653-.413.964-.677.458-.367.894-.803 1.284-1.284.218-.241.413-.494.596-.757.379-.528.677-1.113.918-1.732.195-.505.355-1.021.505-1.56.195-.722.366-1.48.562-2.248.103-.425-.161-.826-.505-.895" transform="translate(0 .5) translate(240.5 117.5)"/>
            <path fill="#0A8E6D" d="M55.465 70.222c-.092.012-.195.023-.287.058-.344.057-.688.184-1.021.344l-.183.08-.046.023c-.241.126-.482.276-.711.436-.207.126-.402.275-.596.447-.3.23-.585.493-.85.78-.997 1.01-1.823 2.214-2.282 3.2-.768-1.904-1.652-3.75-2.615-5.562.505-.551.986-1.101 1.41-1.652.242-.298.448-.596.643-.895.47-.722.826-1.491 1.033-2.351.057-.206.103-.46.137-.723.034-.217.046-.435.023-.642-.023-.562-.241-1.01-.917-.871l-.115.034c-.092.023-.184.058-.298.103-.998.448-1.71 1.422-2.214 2.352l-.011.01c-.195.345-.356.678-.494.976-.183.4-.378.849-.55 1.296-.941-1.537-1.915-3.04-3.005-4.473.32-.436.757-.826 1.078-1.273l.034-.057c.31-.425.528-.872.7-1.331.046-.092.069-.172.103-.264.322-.975.402-1.973.402-2.97 0-.138 0-.322-.012-.528-.068-.872-.367-2.111-1.227-2.065-.16.012-.333.058-.528.16-1.387.792-1.583 3.086-1.812 4.233-.114.7-.218 1.445-.264 2.157-1.467-1.755-3.108-3.372-5.07-4.565.976-1.377.918-3.613.185-4.921-1.136-2.156-3.82-2.821-5.85-2.511-.287.034-.413.412-.287.676 1.056 1.973 2.099 3.969 3.212 5.437-1.09-.413-2.225-.723-3.372-.952-2.145-2.432-5.242-3.97-8.11-2.225-.148.08-.206.39-.125.573.87 2.248 2.82 2.81 4.415 3.143.918.183 1.836.034 2.776-.092.86-.115 1.72-.39 2.58-.15.838.242 1.652.529 2.432.873-1.112.09-2.294.573-3.211 1.433-.93.86-1.606 2.099-1.938 3.67-.058.287.045.493.183.459.78-.16 1.846-.665 3.016-1.422 1.159-.77 2.535-1.743 3.487-3.326l.092.046.057.01c2.007 1.228 3.716 2.949 5.242 4.84-.597-.217-1.32-.285-1.743-.343-1.778-.218-3.602.126-5.322 1.376-.22.16-.345.425-.31.562.195 1.193 1.72 1.136 3.475.987 1.468-.15 3.464-1.113 4.886-.746 1.88.493 1.916 3.109 3.188 4.187-1.857-1.606-5.161-2.34-7.776-1.423-.195.069-.412.276-.412.436-.023 1.652 1.227 2.363 2.936 2.776 1.709.402 3.922.493 5.689.528l.125.01h.414c.09 0 .17-.022.24-.056h.069c.918 1.709 1.755 3.452 2.478 5.24-1.882-1.203-4.703-1.822-7.215-.756-.24.104-.355.39-.206.482 1.892 1.18 4.645 2.638 8.132 2.099.16.436.309.86.447 1.296.287.814.539 1.628.768 2.454.792 2.684 1.377 5.437 1.755 8.213l.24.01h.185c.149 0 .298.012.447.012-.046-.401-.103-.802-.172-1.204-.07-.46-.15-.918-.23-1.365-.15-.883-.332-1.766-.54-2.638-.228-1.043-.503-2.076-.801-3.108-.23-.826-.493-1.651-.77-2.466-.194-.573-.39-1.158-.607-1.732.642-.286 1.239-.642 1.8-1.044.288-.194.574-.412.838-.642.333-.275.654-.573.964-.883.103-.103.195-.207.275-.31.103-.103.183-.206.264-.31.149-.194.287-.39.413-.596.206-.321.378-.653.539-.986l.08-.16c.218-.482.413-.975.642-1.48.126-.298-.103-.482-.424-.448" transform="translate(0 .5) translate(240.5 117.5)"/>
            <path fill="#0B7C5C" d="M102.868 50.427c-1.503-2.02-4.163-2.1-6.388-1.847-1.285.149-2.455.665-3.602 1.239-1.067.539-1.961 1.238-3.12 1.582-1.124.344-2.248.723-3.35 1.147 2.123-1.984 4.302-4.783 3.51-7.902-.068-.276-.4-.38-.642-.253-1.387.735-3.142 2.11-4.266 3.785-1.135 1.687-1.617 3.602-.837 5.276l-.127.057-.068.046c-2.982 1.342-5.815 3.063-8.35 5.15.378-.7.654-1.537.849-2.064.894-2.076 1.64-4.324 1.777-6.756.023-.298-.263-.47-.55-.401-1.262.24-2.248.998-2.96 1.938-.744.918-1.17 2.076-1.398 3.177-.413 1.847.493 3.957-.035 5.689-.367 1.1-1.193 1.96-2.18 2.74-.894.86-1.937 1.653-2.362 2.696 1.228-2.764 2.042-6.652 1.629-9.611 0-.114-.023-.241-.046-.355-.046-.218-.275-.402-.516-.321-.596.195-1.136.48-1.606.837-.447.367-.837.79-1.17 1.273-.218.298-.412.619-.573.952-.356.722-.585 1.525-.723 2.35-.23 1.182-.195 2.432-.07 3.602.116 1.17.357 2.27.655 3.224l.046.137c.046.137.08.287.127.425.034.09.09.16.16.206l.023.08c-1.491 2.11-2.8 4.336-4.037 6.584.01-1.16-.092-2.421-.38-3.648-.045-.218-.102-.424-.171-.642-.321-1.136-.814-2.202-1.548-3.028-.172-.195-.356-.367-.551-.528-.206-.171-.585-.011-.642.253-.07.286-.126.585-.172.883-.218 1.284-.264 2.684-.115 4.003.012.149.023.286.046.424.298 1.767.986 3.395 2.328 4.577-.206.412-.424.837-.62 1.26-.412.838-.813 1.687-1.203 2.547-.861 1.858-1.675 3.75-2.455 5.643-.218.528-.435 1.067-.654 1.595-.16.389-.31.79-.47 1.18h.63c.104 0 .208 0 .299-.011.138-.344.287-.7.425-1.044.986-2.454 2.03-4.897 3.142-7.305.39-.85.792-1.686 1.204-2.524.196-.413.402-.825.608-1.238 1.423.585 2.948.779 4.427.802 1.675.023 2.994-.493 4.497-.837.309-.068.332-.367.126-.607-1.652-1.962-5.597-2.226-8.075-1.193 1.273-2.33 2.616-4.623 4.152-6.78 2.099.39 4.014.815 6.01.472.94-.196 2.879-.402 1.72-1.86-.93-1.203-2.741-1.478-4.082-1.513-.494-.022-1.033 0-1.55.069.724-.906 1.504-1.778 2.272-2.638.826-.826 1.583-1.71 2.466-2.454.504.252.94.642 1.434.906.585.298 1.18.493 1.778.63 1.02.23 2.064.345 3.016.414.86.01 2.924.412 2.42-1.205-.436-1.548-2.558-2.294-3.831-2.57-.757-.182-1.548-.251-2.374-.228 1.135-.941 2.397-1.71 3.624-2.524 1.262-.756 2.58-1.421 3.91-2.041.632 1.583 2.536 2.764 3.832 3.223 2.133.745 4.186-.046 5.987-1.136.24-.137.207-.55-.023-.734-1.812-1.353-3.922-2.534-6.16-2.798 1.423-.494 2.857-.93 4.314-1.308 3.68 1.056 7.26 1.755 10.563-.562.172-.126.172-.436.046-.607" transform="translate(0 .5) translate(240.5 117.5)"/>
            <path fill="#0B7C5C" d="M61.957 16.156c3.68-3.27 7.11-6.561 8.452-11.516.069-.263-.137-.504-.366-.504-2.73.023-5.242 2.718-6.871 5.31-.952 1.48-1.548 3.108-2.018 4.772-.471 1.525-.62 3.016-1.285 4.519-.608 1.479-1.193 2.97-1.732 4.473.103-1.916.057-3.934-.401-5.678-.413-1.732-1.228-3.188-2.684-3.865-.264-.126-.585.137-.677.505-.54 1.984-.814 4.782-.424 7.19.355 2.398 1.387 4.394 3.13 4.933l-.057.172-.011.103c-1.33 4.21-2.351 8.51-3.142 12.846-.15-1.044-.436-2.076-.597-2.753-.47-2.007-1.066-3.923-1.973-5.62-.332-.642-.711-1.25-1.135-1.812-.195-.252-.528-.138-.7.172-.791 1.388-1.032 2.89-.93 4.336.013.194.024.378.047.562.149 1.158.482 2.282.906 3.268.126.287.276.562.436.826.757 1.216 1.835 2.19 2.523 3.464.207.367.379.756.493 1.18.757 2.754-.974 6.309-.756 9.234l.023.24c-.012-.148-.035-.286-.058-.435-.16-1.24-.413-2.524-.768-3.785-.413-1.548-.952-3.04-1.606-4.335-.573-1.136-1.227-2.111-1.95-2.845-.16-.172-.46-.15-.608.115-.883 1.594-1.124 3.349-.963 5.092.092.918.298 1.847.585 2.742.057.183.115.366.184.55.562 1.56 1.353 3.017 2.225 4.3v.013c.63.963 1.307 1.835 1.926 2.568l.103.127c.115.126.23.264.345.378.068.092.149.115.229.126l.069.069c-.012.31-.035.63-.046.94-.07 1.595-.115 3.2-.138 4.807l-.011.252c-.023 1.479-.023 2.959-.023 4.439-.436-1.09-.975-2.203-1.606-3.224-.31-.527-.642-1.032-1.01-1.48-.126-.16-.251-.32-.4-.47-.93-1.066-1.997-1.834-3.166-2.064-.138-.023-.264.08-.356.23-.068.137-.103.32-.068.47.366 1.41.848 2.902 1.479 4.29l.01.034c.483 1.078 1.045 2.087 1.699 2.959.952 1.296 2.099 2.294 3.452 2.753.012.424.012.837.035 1.26.022 1.217.057 2.433.103 3.648.023.884.057 1.767.103 2.639.034.848.069 1.709.115 2.557.046 1.055.103 2.099.16 3.154l.31 5.196h.184c.149 0 .298.01.447.01h.229l-.137-2.338v-.012c-.07-.998-.127-1.984-.173-2.982-.057-1.032-.114-2.064-.16-3.085-.046-.86-.08-1.71-.115-2.558-.045-1.078-.091-2.145-.126-3.223-.034-1.261-.07-2.523-.091-3.785-.012-.31-.024-.607-.024-.917.16-.023.322-.046.47-.08.242-.046.47-.103.7-.184l.127-.034.252-.104c.344-.114.676-.263 1.009-.435.505-.253.998-.551 1.468-.884l.092-.057.149-.103c.436-.322.826-.677 1.17-1.067.86-.93 1.56-2.007 2.35-3.085.23-.31.116-.7-.182-.86-.172-.092-.356-.161-.54-.207-.286-.092-.573-.126-.883-.126-.297 0-.608.034-.917.115-.608.137-1.227.413-1.835.768-.356.218-.712.47-1.044.746-.333.264-.654.56-.952.872v.01c-.47.46-.872.964-1.204 1.48-.103.127-.184.264-.264.402v-2.512l.01-.011v-.058c0-.573 0-1.158.013-1.743 0-.367.01-.734.023-1.112.012-1.09.046-2.18.092-3.27.023-.7.057-1.41.092-2.121l.17-.092c.369-.206.724-.401 1.08-.597 1.525-.86 2.936-1.812 4.128-3.452.735-.986 2.203-3.027.459-3.693-1.433-.55-3.142.7-4.266 1.744-.356.32-.723.676-1.055 1.078l-.207.218c.023-.3.046-.597.08-.895.08-1.113.196-2.225.32-3.337.185-1.732.415-3.453.678-5.173.562-.195 1.147-.184 1.698-.367.665-.218 1.26-.585 1.858-1.021.287-.206.55-.436.814-.677.665-.596 1.273-1.284 1.892-1.961.39-.424 1.044-1.147 1.434-1.893.4-.734.528-1.49-.172-2.018-1.342-1.01-3.567.585-4.725 1.57-.688.586-1.422 1.274-2.076 2.077.757-3.945 1.72-7.845 2.913-11.676 1.583.63 3.9-.493 5.23-1.617 2.202-1.87 3.303-4.851 3.923-7.627.09-.367-.23-.631-.551-.505-2.454.998-4.943 2.489-6.858 4.703.366-.964.768-1.904 1.146-2.856l1.25-2.81" transform="translate(0 .5) translate(240.5 117.5)"/>
            <path fill="#BBBDBF" d="M67.546 116.536c-7.597 2.228-17.52 2.228-25.117 0-1.493-10.96-3.035-21.913-4.706-32.847h34.529c-1.671 10.934-3.213 21.888-4.706 32.847" transform="translate(0 .5) translate(240.5 117.5)"/>
            <path fill="#929497" d="M72.252 83.689L37.723 83.689 39.274 93.808 70.7 93.808 72.252 83.689" transform="translate(0 .5) translate(240.5 117.5)"/>
            <path fill="#D0D2D3" d="M73.921 83.689L36.054 83.689 37.26 91.553 72.715 91.553 73.921 83.689" transform="translate(0 .5) translate(240.5 117.5)"/>
            <path fill="#EEEFEF" d="M71.345 90.01c-.015 0-.03 0-.045-.002-.182-.024-.308-.191-.283-.372l.657-4.793c.022-.166.164-.286.327-.286.014 0 .03 0 .045.003.18.025.307.19.283.372l-.657 4.794c-.023.166-.164.285-.327.285" transform="translate(0 .5) translate(240.5 117.5)"/>
            <path fill="#DBDCDD" d="M66.45 112.663l-.04-.002c-.181-.021-.31-.186-.29-.367l2.017-17.18c.019-.17.162-.293.328-.293.012 0 .025 0 .039.003.18.02.31.185.29.367l-2.016 17.18c-.02.168-.163.292-.328.292" transform="translate(0 .5) translate(240.5 117.5)"/>
        </g>
    </g>
</svg>
